
<svg version="1.0" xmlns="http://www.w3.org/2000/svg"
 width="493.000000pt" height="453.000000pt" viewBox="0 0 493.000000 453.000000"
 preserveAspectRatio="xMidYMid meet">

<g transform="translate(0.000000,453.000000) scale(0.100000,-0.100000)"
fill="#000000" stroke="none">
<path d="M2156 4259 c-863 -77 -1576 -747 -1710 -1609 -73 -465 34 -957 293
-1347 l54 -81 76 64 c113 96 338 244 491 323 297 153 718 328 1125 467 l270
92 0 49 c-1 62 -29 103 -105 152 -65 42 -82 49 -410 155 -297 97 -437 163
-524 250 -34 33 -73 82 -85 109 -113 236 106 570 563 857 191 120 417 223 596
272 68 18 110 22 210 22 191 0 305 -41 418 -148 101 -95 128 -174 97 -282 -36
-128 -150 -274 -310 -399 -124 -97 -171 -121 -315 -165 -141 -42 -180 -48
-180 -27 0 7 77 89 171 182 267 266 369 409 369 521 0 34 -6 59 -17 73 -74 91
-384 4 -734 -205 -311 -186 -531 -389 -590 -544 -73 -191 42 -280 556 -430
190 -55 305 -114 397 -200 40 -37 87 -91 103 -119 17 -28 35 -51 40 -51 6 0
75 13 155 30 80 16 214 37 297 46 149 17 153 17 245 -4 51 -12 130 -26 175
-33 45 -6 87 -17 93 -24 21 -25 -30 -42 -209 -75 -200 -35 -721 -165 -737
-183 -6 -7 -19 -32 -28 -55 -54 -141 -259 -363 -509 -551 -303 -227 -804 -526
-1061 -632 l-88 -37 83 -45 c108 -59 285 -130 402 -161 200 -54 257 -61 512
-61 214 0 253 3 355 24 289 59 559 178 789 348 90 67 261 231 336 323 202 248
339 549 402 885 21 112 29 420 14 542 -54 432 -248 832 -551 1133 -323 322
-733 510 -1200 550 -130 11 -183 11 -324 -1z"/>
<path d="M2295 1751 c-447 -179 -790 -347 -1015 -496 -104 -69 -263 -203 -281
-237 -11 -20 -7 -26 30 -60 l42 -37 72 26 c166 60 367 158 537 263 145 90 429
283 555 378 104 78 299 250 285 251 -3 1 -104 -39 -225 -88z"/>
</g>
</svg>
