<svg width="127" height="127" viewBox="0 0 127 127" fill="none" xmlns="http://www.w3.org/2000/svg">
<rect width="127" height="127" fill="white"/>
<path d="M0 63.5V127H63.5H127V63.5V1.90735e-06H63.5H0V63.5ZM91.5293 8.4336C94.3322 9.12813 96.7383 10.3188 98.8467 12.0799C101.005 13.8906 102.543 16.123 102.939 18.0082C103.634 21.2824 101.798 25.7225 97.9041 30.3113C95.0516 33.6352 87.8582 39.0426 85.4521 39.6627C84.7576 39.8363 82.6492 40.4564 80.7145 41.0766C74.4141 43.0361 74.3893 42.6393 80.3176 37.1078C87.1885 30.6834 91.3309 25.7969 93.216 21.8777C93.9105 20.4143 94.0842 19.7693 94.109 18.4051C94.1338 16.3711 93.6873 15.5773 92.1246 14.982C86.2211 12.7248 67.4936 21.6297 55.7609 32.2709C50.3287 37.1822 47.6994 42.416 48.9645 45.7398C50.2295 49.0389 55.9098 51.8666 67.6176 55.0664C76.3488 57.4229 81.6074 60.8459 84.6832 66.0797L85.601 67.6424L88.6271 66.9479C95.1012 65.4348 104.18 64.2689 106.635 64.6162C107.255 64.6906 108.57 64.9883 109.562 65.2611C110.554 65.534 112.712 65.9061 114.399 66.1045C117.822 66.5014 118.616 66.8982 117.649 67.7168C117.326 67.9648 116.284 68.2873 115.292 68.4609C111.15 69.1307 106.561 70.0236 102.939 70.8174C99.2684 71.6607 86.3451 75.0342 86.2211 75.2078C86.1963 75.2574 85.8986 76.0016 85.601 76.8697C84.7824 79.1021 83.691 80.8881 81.285 83.7158C77.341 88.3791 72.9506 92.3727 66.8734 96.7383C54.5951 105.569 38.4969 114.846 31.1299 117.301C27.3844 118.566 22.7707 119.41 20.6871 119.211C16.3463 118.79 11.5342 115.788 9.89707 112.464C9.40098 111.447 9.30176 110.877 9.30176 108.868C9.30176 106.685 9.35137 106.387 10.1203 104.874C11.7326 101.724 13.8162 99.6404 19.6453 95.4484C25.8217 90.9836 32.2461 87.5357 44.0283 82.4012C54.5703 77.8123 58.5143 76.2744 69.5771 72.5537L77.7627 69.8004L77.8371 68.709C78.0604 65.6332 75.3814 62.9791 69.8748 60.9203C68.957 60.573 65.4596 59.4568 62.0613 58.415C47.9475 54.0742 42.54 50.924 40.0844 45.6406C38.8937 43.0857 39.0178 39.9604 40.4564 36.2148C42.8129 30.0633 50.1055 22.8947 60.1514 16.892C68.4113 11.9311 76.5225 8.68164 82.426 7.9375C84.9809 7.61504 89.0736 7.83828 91.5293 8.4336Z" fill="#FF0000"/>
<path d="M65.0379 82.3516C47.5258 89.1977 33.3623 96.2174 26.0697 101.65C21.2576 105.246 17.016 109.736 17.1648 111.1C17.2393 111.671 17.3633 111.745 18.4051 111.82C21.2328 111.993 32.3949 107.33 39.7123 102.939C47.1041 98.4746 56.4555 92.1246 62.0365 87.8086C64.641 85.7994 70.5693 80.392 70.1973 80.392C70.1228 80.392 67.816 81.2602 65.0379 82.3516Z" fill="#FF0000"/>
</svg>
